<?xml version="1.0" encoding="UTF-8"?><svg id="Layer_1" xmlns="http://www.w3.org/2000/svg" viewBox="0 0 211.37 284.31"><defs><style>.cls-1{fill:#fff;}</style></defs><path class="cls-1" d="m25.4,231.56v-.47c1.23-.06,2.26-.31,3.09-.77.83-.46,1.39-.99,1.68-1.59.17-.37.3-.84.39-1.4s.14-1.12.17-1.7c.06-1.89.09-3.7.09-5.41v-17.49c-.95,2.12-1.81,4.07-2.6,5.84-.79,1.78-1.57,3.51-2.34,5.2s-1.55,3.42-2.34,5.18c-.79,1.76-1.65,3.7-2.6,5.82-.14.29-.34.74-.6,1.35s-.52,1.25-.77,1.89-.5,1.23-.73,1.76c-.23.53-.37.88-.43,1.05h-.26c-.92-2.12-1.83-4.23-2.73-6.32s-1.78-4.1-2.64-6.04-1.66-3.75-2.41-5.44c-.75-1.69-1.42-3.19-2.02-4.51-.6-1.32-1.1-2.42-1.48-3.31-.39-.89-.65-1.49-.79-1.8,0,1.89,0,3.56-.02,5.01-.01,1.45-.03,2.88-.04,4.3-.01,1.42-.02,2.92-.02,4.49v5.5c0,1.35.04,2.51.13,3.5s.3,1.82.64,2.49c.34.67.87,1.2,1.57,1.59.7.39,1.67.67,2.9.84v.43H0v-.43c1-.2,1.82-.49,2.45-.88.63-.39,1.13-.92,1.5-1.61.37-.69.64-1.54.82-2.56s.27-2.26.3-3.72c.06-1.23.1-2.69.13-4.36.03-1.68.04-3.47.04-5.39v-5.42c0-.57-.01-1.27-.04-2.11-.03-.8-.2-1.45-.52-1.96-.32-.5-.69-.89-1.12-1.18-.43-.29-.89-.49-1.38-.62-.49-.13-.9-.22-1.25-.28v-.43h9.15l10.27,23.38c1.26-2.72,2.49-5.43,3.7-8.12s2.28-5.13,3.24-7.31c.96-2.18,1.75-3.99,2.36-5.44.62-1.45.97-2.28,1.05-2.51h9.15v.43c-1.18.03-2.07.27-2.69.73-.62.46-1.04,1-1.27,1.63-.17.49-.29,1.25-.34,2.28-.06,1.03-.1,2.05-.13,3.05-.03,1.38-.04,2.71-.04,4v8.55c0,1.52.01,3.12.04,4.81,0,.54.04,1.1.11,1.65.07.56.19,1,.37,1.31.03.06.14.19.32.41.19.21.45.44.79.69.34.24.77.46,1.29.64.52.19,1.12.29,1.8.32v.43h-14.74Z"/><path class="cls-1" d="m73.69,222.24c-.86,1.95-2.03,3.64-3.5,5.07-1.48,1.43-3.19,2.54-5.16,3.31-1.96.77-4.05,1.16-6.25,1.16s-4.24-.38-6.19-1.14c-1.95-.76-3.65-1.83-5.11-3.22s-2.61-3.05-3.46-4.98c-.85-1.93-1.27-4.06-1.27-6.38,0-2.46.44-4.68,1.33-6.64.89-1.96,2.08-3.62,3.59-4.99,1.5-1.36,3.27-2.41,5.29-3.14,2.02-.73,4.15-1.1,6.38-1.1,2.43,0,4.62.43,6.55,1.29s3.57,2.01,4.92,3.46c1.35,1.45,2.38,3.12,3.09,5.01.72,1.89,1.07,3.87,1.07,5.93,0,2.29-.43,4.41-1.29,6.36Zm-4.71-11.6c-.44-1.78-1.12-3.39-2.02-4.83-.9-1.45-2.03-2.62-3.37-3.52-1.35-.9-2.94-1.35-4.77-1.35s-3.47.45-4.83,1.35c-1.36.9-2.48,2.07-3.35,3.5-.87,1.43-1.52,3.06-1.93,4.88-.42,1.82-.62,3.66-.62,5.52s.23,3.82.69,5.63c.46,1.8,1.14,3.39,2.04,4.77s2.03,2.48,3.4,3.31c1.36.83,2.94,1.25,4.75,1.25s3.37-.46,4.71-1.38c1.33-.92,2.44-2.1,3.33-3.54.89-1.45,1.55-3.07,2-4.88.44-1.8.67-3.61.67-5.41s-.22-3.51-.67-5.29Z"/><path class="cls-1" d="m108.07,208.7c-.23-.52-.5-1.05-.82-1.61-.32-.56-.64-1.08-.97-1.57-.33-.49-.65-.94-.97-1.35-.32-.41-.59-.72-.82-.92-.6-.57-1.25-.95-1.96-1.14-.7-.19-1.6-.29-2.69-.32-.54,0-1.02,0-1.42-.02-.4-.01-.8-.02-1.2-.02h-2.84c0,.72,0,1.69-.02,2.92-.01,1.23-.02,2.52-.02,3.87v16.8c0,.83.02,1.63.06,2.38s.18,1.3.41,1.61c.43.63,1.04,1.06,1.83,1.29.79.23,1.5.4,2.13.52v.43h-13.97v-.43c.74-.09,1.46-.23,2.15-.43.69-.2,1.36-.67,2.02-1.42.14-.14.25-.38.32-.71.07-.33.13-.7.17-1.12s.07-.87.09-1.35c.01-.49.02-.96.02-1.42,0-.4,0-.93.02-1.59.01-.66.03-1.39.04-2.19.01-.8.02-1.63.02-2.49v-16.67h-2.84c-.37,0-.77,0-1.18.02-.42.01-.9.02-1.44.02-1.09.03-1.98.16-2.69.39-.7.23-1.35.63-1.96,1.2-.23.2-.49.5-.79.9-.3.4-.62.84-.95,1.31-.33.47-.64.98-.95,1.53-.3.54-.54,1.07-.71,1.59l-.39-.13,1.29-8.16c.66.14,1.27.26,1.83.34s1.37.14,2.43.17c1.09.03,2.06.05,2.92.06.86.01,1.69.02,2.49.02h8.16c.86,0,1.69,0,2.49-.02.8-.01,1.63-.03,2.49-.04.86-.01,1.83-.02,2.92-.02.95-.03,1.73-.11,2.34-.24.62-.13,1.25-.29,1.91-.49l1.38,8.38-.39.13Z"/><path class="cls-1" d="m131.23,231.56v-.43c1.06-.09,1.95-.28,2.66-.58.71-.3,1.19-.64,1.42-1.01.06-.09.11-.26.15-.52s.08-.56.11-.9c.03-.34.05-.7.06-1.07.01-.37.02-.73.02-1.07.03-.95.04-1.92.04-2.92v-6.79h-16.97v9.24c0,.83.01,1.63.04,2.41s.16,1.32.39,1.63c.34.49.83.86,1.46,1.12s1.25.42,1.85.47v.43h-12.68v-.43c.72-.11,1.4-.31,2.06-.58.66-.27,1.16-.61,1.5-1.01.11-.14.21-.38.28-.71.07-.33.13-.71.17-1.14s.08-.9.11-1.4.04-.98.04-1.44c0-.4,0-.95.02-1.63s.03-1.44.04-2.26.02-1.65.02-2.51v-12.42c0-.52-.02-.99-.06-1.44-.04-.44-.11-.84-.19-1.2-.09-.36-.21-.64-.39-.84-.4-.49-.9-.84-1.48-1.05-.59-.21-1.25-.37-2-.45v-.43h12.8v.43c-.4.06-.83.14-1.29.26-.46.12-.87.29-1.25.54-.37.24-.69.58-.95,1.01s-.4.97-.43,1.63c-.03,1-.05,2.08-.06,3.24-.01,1.16-.02,2.27-.02,3.33v4.34h16.97v-6.92c0-.74-.02-1.59-.04-2.54-.03-.54-.06-1.11-.11-1.7-.04-.59-.18-1.07-.41-1.44-.52-.77-1.1-1.25-1.76-1.44-.66-.19-1.32-.29-1.98-.32v-.43h12.93v.43c-.69.09-1.36.28-2.02.58-.66.3-1.15.74-1.46,1.31-.12.2-.2.48-.26.84-.06.36-.1.76-.13,1.2-.03.45-.04.9-.04,1.35v14.05c0,.8,0,1.63.02,2.49.01.86.02,1.8.02,2.84,0,.83.02,1.6.06,2.3s.15,1.18.32,1.44c.37.57.87.97,1.5,1.2.63.23,1.32.39,2.06.47v.43h-13.19Z"/><path class="cls-1" d="m174.63,231.56h-26.3v-.43c.72-.11,1.38-.3,2-.56s1.12-.62,1.53-1.07c.14-.17.26-.42.34-.75.09-.33.17-.71.24-1.14s.12-.88.15-1.35.04-.94.04-1.4c0-.4,0-.95.02-1.63s.03-1.44.04-2.26.02-1.65.02-2.51v-10.87c0-.52,0-1.04-.02-1.59-.01-.54-.04-1.06-.09-1.55-.04-.49-.11-.92-.21-1.31s-.24-.67-.41-.84c-.43-.46-.89-.75-1.38-.88s-1.12-.25-1.89-.37v-.43h23.72l2.92,7.09-.43.21c-2.32-2.89-4.5-4.84-6.53-5.84-.49-.23-1.39-.43-2.71-.6s-2.92-.26-4.81-.26c-.6,0-1.22.02-1.87.06s-1.11.09-1.4.15c-.06.46-.11,1.4-.15,2.84-.04,1.43-.06,3.09-.06,4.99v2.75c0,.75,0,1.35.02,1.83s.02.84.02,1.1v.47h.86c.43,0,.92-.01,1.48-.04s1.12-.06,1.68-.11,1.02-.11,1.4-.19c.86-.2,1.58-.47,2.15-.82s1.04-.76,1.4-1.25.64-1.05.86-1.7.41-1.37.58-2.17h.52v13.54h-.52c-.23-.92-.58-1.86-1.05-2.84s-.97-1.7-1.48-2.19c-.46-.4-1.01-.73-1.65-.99s-1.4-.42-2.26-.47c-.43-.03-.79-.05-1.07-.06s-.57-.02-.86-.02h-1.98c-.06.4-.09.99-.09,1.76v5.16c0,.46,0,.9.02,1.31s.02.77.02,1.05c.03.92.08,1.78.15,2.6s.24,1.43.49,1.83c.26.4.87.69,1.85.86s2.03.26,3.18.26c.49,0,1.11-.01,1.87-.04.76-.03,1.55-.1,2.38-.21.92-.11,1.76-.34,2.54-.67.77-.33,1.52-.79,2.23-1.4.71-.6,1.41-1.34,2.08-2.21.67-.87,1.37-1.93,2.08-3.16l.47.13-2.15,8.21Z"/><path class="cls-1" d="m202.56,231.56c-.26-.26-.45-.45-.56-.58-.12-.13-.24-.28-.39-.45-.14-.17-.32-.42-.54-.75-.21-.33-.55-.82-1.01-1.48-.54-.8-1.03-1.53-1.44-2.17s-.84-1.28-1.27-1.91-.9-1.27-1.4-1.91-1.1-1.37-1.78-2.17c-.57-.66-1.2-1.27-1.87-1.85s-1.38-.93-2.13-1.07c-.54-.11-.96-.17-1.25-.17-.26,0-.59-.01-.99-.04v4.86c0,1.38.01,2.54.04,3.48.03.92.06,1.7.09,2.36s.19,1.2.47,1.63c.23.37.67.75,1.33,1.14s1.58.61,2.75.67v.43h-13.75v-.43c.72-.11,1.4-.29,2.06-.52.66-.23,1.17-.57,1.55-1.03.14-.17.26-.43.34-.77s.15-.73.19-1.16.08-.89.11-1.38.04-.96.04-1.42c0-.4,0-.95.02-1.63s.03-1.44.04-2.26.02-1.65.02-2.51v-10.87c0-.52,0-1.04-.02-1.57-.01-.53-.04-1.03-.09-1.5s-.11-.9-.21-1.29-.24-.67-.41-.84c-.43-.46-.91-.77-1.44-.92-.53-.16-1.18-.29-1.96-.41v-.43h1.76c.97,0,2.08,0,3.31-.02,1.23-.01,2.46-.02,3.7-.02h3.01c1.92,0,3.62.06,5.11.17,1.49.12,2.85.5,4.08,1.16,1.26.66,2.28,1.55,3.05,2.69.77,1.13,1.16,2.56,1.16,4.28,0,1.06-.19,2.01-.58,2.86s-.9,1.59-1.55,2.23-1.4,1.2-2.26,1.65c-.86.46-1.76.84-2.71,1.16v.13c.49.26.96.63,1.42,1.12s.9,1.03,1.33,1.63c.74,1.09,1.55,2.26,2.43,3.52.87,1.26,1.65,2.38,2.34,3.35,1.06,1.49,2.09,2.58,3.09,3.27,1,.69,2.18,1.13,3.52,1.33v.43h-8.81Zm-4.25-26.77c-.72-1.12-1.76-2-3.14-2.66-.69-.31-1.41-.54-2.17-.69-.76-.14-1.55-.21-2.38-.21-.6,0-1.09.01-1.46.04-.37.03-.66.06-.86.09-.03.17-.06.32-.09.45s-.05.29-.06.49c-.01.2-.03.48-.04.84-.01.36-.04.87-.06,1.53-.03,1-.05,2.13-.06,3.39-.01,1.26-.02,2.48-.02,3.65v4.73c1.17,0,2.27-.05,3.29-.15s2-.31,2.94-.62c.92-.29,1.7-.67,2.36-1.16s1.2-1.04,1.61-1.65.72-1.28.92-2,.3-1.46.3-2.24c0-1.43-.36-2.71-1.07-3.82Z"/><path class="cls-1" d="m81.97,252.39h-3.67v-5.32h12.98v5.32h-3.72v31.92h-5.59v-31.92Z"/><path class="cls-1" d="m92.88,247.07h7.02c3.78,0,7.02,2.39,7.02,5.8v10.96c0,2.02-1.17,3.67-2.87,4.74l2.87,9.52v6.23h-3.99l-3.99-14.69h-.48v14.69h-5.59v-37.25Zm7.02,17.5c.69,0,1.44-.37,1.44-1.12v-10.22c0-.75-.74-1.12-1.44-1.12h-1.44v12.45h1.44Z"/><path class="cls-1" d="m108.78,247.07h9.79v5.05h-4.2v10.85h4.2v5.05h-4.2v11.23h4.2v5.05h-9.79v-37.25Z"/><path class="cls-1" d="m120.44,247.07h9.79v5.05h-4.2v10.85h4.2v5.05h-4.2v11.23h4.2v5.05h-9.79v-37.25Z"/><path class="cls-1" d="m63.71,147.22l-16.34,28.31h113.98l-16.34-28.31H63.71Zm81.3,0h17.63l-56.99-98.71-56.99,98.71h15.06l40.65-70.4,40.65,70.4Z"/><polygon class="cls-1" points="104.36 28.31 145 98.71 162.63 98.71 105.64 0 48.65 98.71 63.71 98.71 104.36 28.31"/></svg>